<mxfile host="65bd71144e">
    <diagram id="yEcXCuC31TrCesncV_Jm" name="Page-1">
        <mxGraphModel dx="1274" dy="907" grid="1" gridSize="10" guides="1" tooltips="1" connect="1" arrows="1" fold="1" page="1" pageScale="1" pageWidth="850" pageHeight="1100" math="0" shadow="0">
            <root>
                <mxCell id="0"/>
                <mxCell id="1" parent="0"/>
                <mxCell id="2" value="LOGIN / Registration" style="swimlane;startSize=20;horizontal=1;containerType=tree;newEdgeStyle={&quot;edgeStyle&quot;:&quot;elbowEdgeStyle&quot;,&quot;startArrow&quot;:&quot;none&quot;,&quot;endArrow&quot;:&quot;none&quot;};" vertex="1" parent="1">
                    <mxGeometry x="10" y="60" width="830" height="570" as="geometry"/>
                </mxCell>
                <mxCell id="75" value="LOGIN" style="rounded=0;whiteSpace=wrap;html=1;" vertex="1" parent="2">
                    <mxGeometry x="570" y="70" width="180" height="60" as="geometry"/>
                </mxCell>
                <mxCell id="76" value="CREATE ACCOUNT&amp;nbsp;&lt;br&gt;OR &lt;br&gt;LINK WITH SOCIAL MEDIA ACCOUNT" style="rounded=0;whiteSpace=wrap;html=1;" vertex="1" parent="2">
                    <mxGeometry x="125" y="55" width="180" height="90" as="geometry"/>
                </mxCell>
                <mxCell id="77" value="Email:" style="rounded=1;whiteSpace=wrap;html=1;fontSize=18;strokeWidth=1;align=left;" vertex="1" parent="2">
                    <mxGeometry x="60" y="210" width="350" height="60" as="geometry"/>
                </mxCell>
                <mxCell id="79" value="Password:" style="rounded=1;whiteSpace=wrap;html=1;fontSize=18;strokeWidth=1;align=left;" vertex="1" parent="2">
                    <mxGeometry x="60" y="270" width="350" height="60" as="geometry"/>
                </mxCell>
                <mxCell id="80" value="Password:" style="rounded=1;whiteSpace=wrap;html=1;fontSize=18;strokeWidth=1;align=left;" vertex="1" parent="2">
                    <mxGeometry x="60" y="330" width="350" height="60" as="geometry"/>
                </mxCell>
                <mxCell id="81" value="Phone:" style="rounded=1;whiteSpace=wrap;html=1;fontSize=18;strokeWidth=1;align=left;" vertex="1" parent="2">
                    <mxGeometry x="60" y="390" width="350" height="60" as="geometry"/>
                </mxCell>
                <mxCell id="83" value="Meta Login" style="shape=partialRectangle;html=1;whiteSpace=wrap;connectable=0;fillColor=#dae8fc;top=0;left=0;bottom=0;right=0;overflow=hidden;pointerEvents=1;strokeColor=#6c8ebf;gradientColor=#7ea6e0;fontSize=18;fontStyle=1" vertex="1" parent="2">
                    <mxGeometry x="60" y="450" width="113" height="88" as="geometry">
                        <mxRectangle width="113" height="88" as="alternateBounds"/>
                    </mxGeometry>
                </mxCell>
                <mxCell id="84" value="Google Login" style="shape=partialRectangle;html=1;whiteSpace=wrap;connectable=0;fillColor=#d5e8d4;top=0;left=0;bottom=0;right=0;overflow=hidden;pointerEvents=1;gradientColor=#97d077;strokeColor=#82b366;fontSize=18;fontStyle=1" vertex="1" parent="2">
                    <mxGeometry x="173" y="450" width="127" height="88" as="geometry">
                        <mxRectangle width="114" height="88" as="alternateBounds"/>
                    </mxGeometry>
                </mxCell>
                <mxCell id="85" value="Sharepoint Login" style="shape=partialRectangle;html=1;whiteSpace=wrap;connectable=0;fillColor=#cce5ff;top=0;left=0;bottom=0;right=0;overflow=hidden;pointerEvents=1;strokeColor=#36393d;fontSize=18;fontStyle=1" vertex="1" parent="2">
                    <mxGeometry x="300" y="450" width="110" height="88" as="geometry">
                        <mxRectangle width="113" height="88" as="alternateBounds"/>
                    </mxGeometry>
                </mxCell>
                <mxCell id="86" value="Email:" style="rounded=1;whiteSpace=wrap;html=1;fontSize=18;strokeWidth=1;align=left;" vertex="1" parent="2">
                    <mxGeometry x="460" y="210" width="350" height="60" as="geometry"/>
                </mxCell>
                <mxCell id="87" value="Password:" style="rounded=1;whiteSpace=wrap;html=1;fontSize=18;strokeWidth=1;align=left;" vertex="1" parent="2">
                    <mxGeometry x="460" y="270" width="350" height="60" as="geometry"/>
                </mxCell>
                <mxCell id="90" value="Meta Login" style="shape=partialRectangle;html=1;whiteSpace=wrap;connectable=0;fillColor=#dae8fc;top=0;left=0;bottom=0;right=0;overflow=hidden;pointerEvents=1;strokeColor=#6c8ebf;gradientColor=#7ea6e0;fontSize=18;fontStyle=1" vertex="1" parent="2">
                    <mxGeometry x="460" y="330" width="113" height="88" as="geometry">
                        <mxRectangle width="113" height="88" as="alternateBounds"/>
                    </mxGeometry>
                </mxCell>
                <mxCell id="91" value="Google Login" style="shape=partialRectangle;html=1;whiteSpace=wrap;connectable=0;fillColor=#d5e8d4;top=0;left=0;bottom=0;right=0;overflow=hidden;pointerEvents=1;gradientColor=#97d077;strokeColor=#82b366;fontSize=18;fontStyle=1" vertex="1" parent="2">
                    <mxGeometry x="573" y="330" width="127" height="88" as="geometry">
                        <mxRectangle width="114" height="88" as="alternateBounds"/>
                    </mxGeometry>
                </mxCell>
                <mxCell id="92" value="Sharepoint Login" style="shape=partialRectangle;html=1;whiteSpace=wrap;connectable=0;fillColor=#cce5ff;top=0;left=0;bottom=0;right=0;overflow=hidden;pointerEvents=1;strokeColor=#36393d;fontSize=18;fontStyle=1" vertex="1" parent="2">
                    <mxGeometry x="700" y="330" width="110" height="88" as="geometry">
                        <mxRectangle width="113" height="88" as="alternateBounds"/>
                    </mxGeometry>
                </mxCell>
            </root>
        </mxGraphModel>
    </diagram>
</mxfile>